<?xml version="1.0" encoding="UTF-8"?>
<svg id="Layer_2" data-name="Layer 2" xmlns="http://www.w3.org/2000/svg" viewBox="0 0 47.89 43.41">
  <defs>
    <style>
      .cls-1 {
        fill: #bcbec0;
        opacity: .5;
      }

      .cls-2 {
        fill: #f1f2f2;
      }
    </style>
  </defs>
  <g id="Layer_1-2" data-name="Layer 1">
    <g>
      <path class="cls-1" d="m34.21,7.54v-3.51c0-.92-.75-1.67-1.67-1.67H15.35c-.92,0-1.67.75-1.67,1.67v3.51c0,.92-.75,1.67-1.67,1.67H1.67c-.92,0-1.67.75-1.67,1.67v24.03c0,.92.75,1.67,1.67,1.67h10.35c.92,0,1.67.75,1.67,1.67v3.51c0,.92.75,1.67,1.67,1.67h3.51c.92,0,1.67-.75,1.67-1.67v-3.51c0-.92.75-1.67,1.67-1.67h3.51c.92,0,1.67.75,1.67,1.67v3.51c0,.92.75,1.67,1.67,1.67h3.51c.92,0,1.67-.75,1.67-1.67v-3.51c0-.92.75-1.67,1.67-1.67h10.35c.92,0,1.67-.75,1.67-1.67V10.87c0-.92-.75-1.67-1.67-1.67h-10.35c-.92,0-1.67-.75-1.67-1.67ZM12.02,29.73h-3.51c-.92,0-1.67-.75-1.67-1.67v-10.35c0-.92.75-1.67,1.67-1.67h3.51c.92,0,1.67.75,1.67,1.67v10.35c0,.92-.75,1.67-1.67,1.67Zm13.68,0h-3.51c-.92,0-1.67-.75-1.67-1.67v-3.51c0-.92.75-1.67,1.67-1.67h3.51c.92,0,1.67.75,1.67,1.67v3.51c0,.92-.75,1.67-1.67,1.67Zm0-13.68h-3.51c-.92,0-1.67-.75-1.67-1.67v-3.51c0-.92.75-1.67,1.67-1.67h3.51c.92,0,1.67.75,1.67,1.67v3.51c0,.92-.75,1.67-1.67,1.67Zm13.68,13.68h-3.51c-.92,0-1.67-.75-1.67-1.67v-10.35c0-.92.75-1.67,1.67-1.67h3.51c.92,0,1.67.75,1.67,1.67v10.35c0,.92-.75,1.67-1.67,1.67Z"/>
      <path class="cls-2" d="m34.21,5.18V1.67c0-.92-.75-1.67-1.67-1.67H15.35c-.92,0-1.67.75-1.67,1.67v3.51c0,.92-.75,1.67-1.67,1.67H1.67C.75,6.84,0,7.59,0,8.51v24.03c0,.92.75,1.67,1.67,1.67h10.35c.92,0,1.67.75,1.67,1.67v3.51c0,.92.75,1.67,1.67,1.67h3.51c.92,0,1.67-.75,1.67-1.67v-3.51c0-.92.75-1.67,1.67-1.67h3.51c.92,0,1.67.75,1.67,1.67v3.51c0,.92.75,1.67,1.67,1.67h3.51c.92,0,1.67-.75,1.67-1.67v-3.51c0-.92.75-1.67,1.67-1.67h10.35c.92,0,1.67-.75,1.67-1.67V8.51c0-.92-.75-1.67-1.67-1.67h-10.35c-.92,0-1.67-.75-1.67-1.67ZM12.02,27.36h-3.51c-.92,0-1.67-.75-1.67-1.67v-10.35c0-.92.75-1.67,1.67-1.67h3.51c.92,0,1.67.75,1.67,1.67v10.35c0,.92-.75,1.67-1.67,1.67Zm13.68,0h-3.51c-.92,0-1.67-.75-1.67-1.67v-3.51c0-.92.75-1.67,1.67-1.67h3.51c.92,0,1.67.75,1.67,1.67v3.51c0,.92-.75,1.67-1.67,1.67Zm0-13.68h-3.51c-.92,0-1.67-.75-1.67-1.67v-3.51c0-.92.75-1.67,1.67-1.67h3.51c.92,0,1.67.75,1.67,1.67v3.51c0,.92-.75,1.67-1.67,1.67Zm13.68,13.68h-3.51c-.92,0-1.67-.75-1.67-1.67v-10.35c0-.92.75-1.67,1.67-1.67h3.51c.92,0,1.67.75,1.67,1.67v10.35c0,.92-.75,1.67-1.67,1.67Z"/>
    </g>
  </g>
</svg>